HIERARCHY
ROOT Hips
{
	OFFSET -0.001795 -0.223333 0.028219
	CHANNELS 6 Xposition Yposition Zposition Zrotation Yrotation Xrotation 
	JOINT LeftUpLeg
	{
		OFFSET 0.069520 -0.091406 -0.006815
		CHANNELS 3 Zrotation Yrotation Xrotation
		JOINT LeftLeg
		{
			OFFSET 0.034277 -0.375199 -0.004496
			CHANNELS 3 Zrotation Yrotation Xrotation
			JOINT LeftFoot
			{
				OFFSET -0.013596 -0.397961 -0.043693
				CHANNELS 3 Zrotation Yrotation Xrotation
				JOINT LeftToe
				{
					OFFSET 0.026358 -0.055791 0.119288
					CHANNELS 3 Zrotation Yrotation Xrotation
					End Site
					{
						OFFSET 0.000000 0.000000 0.000000
					}
				}
			}
		}
	}
	JOINT RightUpLeg
	{
		OFFSET -0.067670 -0.090522 -0.004320
		CHANNELS 3 Zrotation Yrotation Xrotation
		JOINT RightLeg
		{
			OFFSET -0.038290 -0.382569 -0.008850
			CHANNELS 3 Zrotation Yrotation Xrotation
			JOINT RightFoot
			{
				OFFSET 0.015774 -0.398415 -0.042312
				CHANNELS 3 Zrotation Yrotation Xrotation
				JOINT RightToe
				{
					OFFSET -0.025372 -0.048144 0.123348
					CHANNELS 3 Zrotation Yrotation Xrotation
					End Site
					{
						OFFSET 0.000000 0.000000 0.000000
					}
				}
			}
		}
	}
	JOINT Spine
	{
		OFFSET -0.002533 0.108963 -0.026696
		CHANNELS 3 Zrotation Yrotation Xrotation
		JOINT Spine1
		{
			OFFSET 0.005487 0.135180 0.001092
			CHANNELS 3 Zrotation Yrotation Xrotation
			JOINT Spine2
			{
				OFFSET 0.001457 0.052922 0.025425
				CHANNELS 3 Zrotation Yrotation Xrotation
				JOINT Neck
				{
					OFFSET -0.002778 0.213870 -0.042857
					CHANNELS 3 Zrotation Yrotation Xrotation
					JOINT Head
					{
						OFFSET 0.005152 0.064970 0.051349
						CHANNELS 3 Zrotation Yrotation Xrotation
						End Site
						{
							OFFSET 0.000000 0.000000 0.000000
						}
					}
				}
				JOINT LeftShoulder
				{
					OFFSET 0.078845 0.121749 -0.034090
					CHANNELS 3 Zrotation Yrotation Xrotation
					JOINT LeftArm
					{
						OFFSET 0.090977 0.030469 -0.008868
						CHANNELS 3 Zrotation Yrotation Xrotation
						JOINT LeftForeArm
						{
							OFFSET 0.259612 -0.012772 -0.027456
							CHANNELS 3 Zrotation Yrotation Xrotation
							JOINT LeftHand
							{
								OFFSET 0.249234 0.008986 -0.001171
								CHANNELS 3 Zrotation Yrotation Xrotation
								End Site
								{
									OFFSET 0.000000 0.000000 0.000000
								}
							}
						}
					}
				}
				JOINT RightShoulder
				{
					OFFSET -0.081759 0.118833 -0.038615
					CHANNELS 3 Zrotation Yrotation Xrotation
					JOINT RightArm
					{
						OFFSET -0.096012 0.032551 -0.009143
						CHANNELS 3 Zrotation Yrotation Xrotation
						JOINT RightForeArm
						{
							OFFSET -0.253742 -0.013329 -0.021401
							CHANNELS 3 Zrotation Yrotation Xrotation
							JOINT RightHand
							{
								OFFSET -0.255298 0.007772 -0.005559
								CHANNELS 3 Zrotation Yrotation Xrotation
								End Site
								{
									OFFSET 0.000000 0.000000 0.000000
								}
							}
						}
					}
				}
			}
		}
	}
}
MOTION
Frames: 16
Frame Time: 0.050000
-0.011515 0.939404 -0.039089 -2.819789 -0.117607 22.372845 11.996304 -0.325251 -24.551466 -6.363288 0.708699 1.673118 11.016540 21.955883 18.218958 0.000000 0.000000 0.000000 -8.184363 1.497684 -29.735821 6.608005 -0.638734 -0.280625 -3.478179 -13.623706 24.685919 0.000000 0.000000 0.000000 3.396861 -2.697187 32.487474 -4.405303 1.551977 -19.010475 -3.941896 6.063190 27.202744 19.291671 -6.728576 -32.126369 0.000000 0.000000 0.000000 7.622389 -22.697209 7.063829 -18.212510 -44.366227 0.693423 46.439373 -38.046780 -15.037337 0.000000 0.000000 0.000000 8.520422 8.810656 4.508586 34.086173 57.422405 11.169799 -43.786565 48.200672 -14.663865 0.000000 0.000000 0.000000 
-0.011283 0.939016 -0.040145 -2.835309 0.114648 22.473924 12.016563 -0.334891 -24.908516 -6.319628 0.704617 1.896871 10.926573 21.873639 18.055396 0.000000 0.000000 0.000000 -8.391860 1.447651 -29.988030 6.943758 -0.678897 -0.107519 -3.632380 -13.811762 24.752106 0.000000 0.000000 0.000000 3.350117 -2.733942 32.822712 -4.380283 1.546007 -19.019185 -3.810395 6.293966 27.160417 18.987953 -6.760912 -31.199038 0.000000 0.000000 0.000000 7.630228 -22.731605 7.085988 -17.598690 -44.617772 0.478382 46.782806 -37.426464 -14.960257 0.000000 0.000000 0.000000 8.378474 8.800103 4.537335 33.156921 57.317436 10.723775 -43.787921 47.460226 -14.369196 0.000000 0.000000 0.000000 
-0.011112 0.938698 -0.041162 -2.783979 0.335720 22.601762 12.019308 -0.349931 -25.142374 -6.366333 0.705727 1.849293 10.827625 21.772178 17.970178 0.000000 0.000000 0.000000 -8.636386 1.389673 -30.248847 7.217574 -0.713351 0.040868 -3.781134 -13.992442 24.814089 0.000000 0.000000 0.000000 3.466362 -2.816060 32.963825 -4.525372 1.583274 -19.136089 -3.599733 6.353865 27.524154 18.686741 -6.806381 -30.395623 0.000000 0.000000 0.000000 7.649913 -22.544668 7.036187 -17.429657 -45.115207 0.408894 46.420084 -37.107878 -14.688858 0.000000 0.000000 0.000000 7.709761 8.650964 4.417130 33.000222 57.921103 10.903767 -44.168647 46.544405 -14.154833 0.000000 0.000000 0.000000 
-0.011049 0.938361 -0.042030 -2.745754 0.665527 22.681208 12.063272 -0.368156 -25.350765 -6.429390 0.707337 1.825920 10.671119 21.603618 17.830744 0.000000 0.000000 0.000000 -8.754088 1.339203 -30.331392 7.334719 -0.730880 0.022881 -3.968962 -14.208649 24.861000 0.000000 0.000000 0.000000 3.493422 -2.862391 32.932095 -4.399439 1.561223 -18.772988 -3.499721 6.470855 27.397285 18.322762 -6.845442 -29.303250 0.000000 0.000000 0.000000 7.646639 -22.570083 7.054745 -17.402132 -45.244427 0.374407 46.345640 -36.828190 -14.587121 0.000000 0.000000 0.000000 7.135434 8.570532 4.346376 32.940593 57.838834 10.949003 -44.507451 45.980983 -14.057167 0.000000 0.000000 0.000000 
-0.011054 0.938158 -0.042911 -2.757197 0.863510 22.597173 12.087539 -0.378363 -25.375848 -6.411719 0.702425 1.852077 10.577377 21.498126 17.702223 0.000000 0.000000 0.000000 -8.885520 1.294921 -30.336758 7.596978 -0.764508 0.133400 -4.081832 -14.335487 24.888835 0.000000 0.000000 0.000000 3.504433 -2.907008 33.168845 -4.411552 1.567410 -18.905023 -3.280574 6.479463 27.592461 18.054337 -6.755520 -29.051600 0.000000 0.000000 0.000000 7.734716 -22.411340 7.002946 -17.950578 -45.474062 0.531745 45.937753 -36.867859 -14.453493 0.000000 0.000000 0.000000 6.495113 8.498182 4.246729 33.478093 57.892942 11.310984 -45.011824 45.626632 -14.108460 0.000000 0.000000 0.000000 
-0.011040 0.937850 -0.043939 -2.780178 0.949304 22.563965 12.198901 -0.363690 -25.545860 -6.540335 0.722184 2.060543 10.560797 21.491327 17.603068 0.000000 0.000000 0.000000 -8.949285 1.275936 -30.393489 7.744567 -0.783139 0.191004 -4.140537 -14.404464 24.891392 0.000000 0.000000 0.000000 3.534676 -2.949724 33.414047 -4.410432 1.569882 -18.844629 -3.240518 6.673999 27.638976 17.761764 -6.747871 -28.294236 0.000000 0.000000 0.000000 7.697768 -22.569003 7.056783 -17.880618 -45.512790 0.485774 45.310888 -36.802701 -14.236716 0.000000 0.000000 0.000000 6.173782 8.379312 4.182508 33.468550 58.031631 11.429603 -45.590893 45.205216 -14.141246 0.000000 0.000000 0.000000 
-0.011002 0.937762 -0.045099 -2.788085 1.056878 22.473086 12.308333 -0.352078 -25.636036 -6.699140 0.743861 2.209819 10.510916 21.436362 17.551426 0.000000 0.000000 0.000000 -8.989125 1.258680 -30.482427 7.827744 -0.800893 0.412644 -4.196661 -14.470921 24.914627 0.000000 0.000000 0.000000 3.559952 -2.991491 33.653294 -4.358605 1.563369 -18.638160 -3.209733 6.686721 27.629653 17.679948 -6.844183 -27.701585 0.000000 0.000000 0.000000 7.653063 -22.632981 7.081097 -18.273448 -45.540316 0.603941 45.207030 -36.510256 -14.079712 0.000000 0.000000 0.000000 6.003821 8.456609 4.201868 32.990484 57.847378 11.142783 -46.300667 44.785596 -14.265622 0.000000 0.000000 0.000000 
-0.011002 0.937582 -0.046224 -2.845429 1.182036 22.379425 12.525255 -0.325720 -25.580008 -6.944072 0.769518 2.108762 10.464461 21.381229 17.486897 0.000000 0.000000 0.000000 -8.940043 1.256001 -30.542034 7.860170 -0.812492 0.593118 -4.259300 -14.541111 24.917209 0.000000 0.000000 0.000000 3.658445 -3.053677 33.755194 -4.414660 1.582102 -18.489975 -3.009754 6.820615 27.877955 17.534222 -6.793960 -27.517972 0.000000 0.000000 0.000000 7.411017 -22.884047 7.178966 -18.547518 -45.775467 0.673123 45.312809 -36.245166 -14.020142 0.000000 0.000000 0.000000 5.411185 8.276737 4.065103 33.151704 57.943325 11.334856 -47.305617 44.259922 -14.421516 0.000000 0.000000 0.000000 
-0.011138 0.937351 -0.047166 -2.854243 1.233231 22.350463 12.621728 -0.314245 -25.546653 -7.065526 0.779712 1.974905 10.448048 21.362745 17.451794 0.000000 0.000000 0.000000 -8.964874 1.246280 -30.530005 7.930468 -0.819058 0.526715 -4.289030 -14.574384 24.919772 0.000000 0.000000 0.000000 3.678350 -3.075012 33.844759 -4.384361 1.577195 -18.413284 -2.973344 6.837600 27.910060 17.502999 -6.803118 -27.417506 0.000000 0.000000 0.000000 6.833109 -22.943173 7.264147 -19.112408 -45.833691 0.846469 45.244732 -36.074447 -13.898773 0.000000 0.000000 0.000000 5.608783 8.442059 4.164407 32.268462 57.778757 10.804008 -47.758711 44.072619 -14.543352 0.000000 0.000000 0.000000 
-0.011480 0.937192 -0.047939 -2.861570 1.289739 22.319645 12.730622 -0.303144 -25.451225 -7.187588 0.787158 1.752464 10.424463 21.332135 17.454828 0.000000 0.000000 0.000000 -8.924751 1.248391 -30.529928 7.913743 -0.817677 0.508647 -4.318730 -14.607144 24.901363 0.000000 0.000000 0.000000 3.690514 -3.110052 34.124608 -4.464654 1.595535 -18.638098 -2.918767 6.861059 28.070286 17.651391 -6.776781 -27.844850 0.000000 0.000000 0.000000 6.366455 -23.097807 7.365243 -19.864300 -46.027270 1.082208 45.677103 -36.053061 -14.005522 0.000000 0.000000 0.000000 5.537890 8.198417 4.051811 32.980060 57.955436 11.242249 -47.745370 44.219035 -14.567593 0.000000 0.000000 0.000000 
-0.012016 0.937051 -0.048548 -2.842976 1.322347 22.425178 12.776473 -0.300362 -25.504165 -7.212626 0.783529 1.560737 10.411282 21.317265 17.511675 0.000000 0.000000 0.000000 -8.856489 1.261046 -30.522101 7.799852 -0.797476 0.233179 -4.333033 -14.624738 24.915289 0.000000 0.000000 0.000000 3.740605 -3.136026 34.112261 -4.529122 1.613098 -18.435398 -3.050510 6.752572 27.845841 17.540189 -6.709905 -27.858660 0.000000 0.000000 0.000000 5.555247 -23.219798 7.504498 -20.199083 -46.192762 1.232355 45.607943 -36.077440 -13.927950 0.000000 0.000000 0.000000 5.992020 8.333505 4.160071 33.033144 58.077492 11.273456 -47.212329 44.488236 -14.479129 0.000000 0.000000 0.000000 
-0.012727 0.936946 -0.049097 -2.908799 1.281386 22.425593 12.805317 -0.296852 -25.315379 -7.059502 0.755653 1.197697 10.431182 21.333860 17.557453 0.000000 0.000000 0.000000 -8.797687 1.277114 -30.452361 7.897196 -0.800072 0.014330 -4.304695 -14.593864 24.935580 0.000000 0.000000 0.000000 3.672873 -3.115121 34.232246 -4.594670 1.629243 -18.351059 -3.096585 6.777260 27.718803 17.771012 -6.889395 -27.635713 0.000000 0.000000 0.000000 5.188538 -23.413582 7.610803 -20.667168 -46.294640 1.393652 45.509030 -35.813823 -13.749905 0.000000 0.000000 0.000000 6.371591 8.210129 4.152853 33.599028 58.323139 11.639877 -46.178628 44.712269 -14.147959 0.000000 0.000000 0.000000 
-0.013525 0.937061 -0.049604 -2.980384 1.379898 22.555348 12.815851 -0.307339 -25.238808 -6.805378 0.712346 0.733063 10.370529 21.254391 17.677593 0.000000 0.000000 0.000000 -8.702231 1.290493 -30.443340 7.982754 -0.818926 0.282845 -4.086141 -14.115132 23.552995 0.000000 0.000000 0.000000 3.726966 -3.143112 34.123305 -4.708825 1.657239 -18.234443 -3.191701 6.679018 27.532017 17.889698 -6.913358 -27.788831 0.000000 0.000000 0.000000 5.270917 -23.610428 7.663829 -20.921470 -46.310601 1.497680 45.261497 -35.505178 -13.520720 0.000000 0.000000 0.000000 6.654641 8.176849 4.165922 34.124350 58.510511 11.971501 -44.633073 44.975712 -13.650894 0.000000 0.000000 0.000000 
-0.014309 0.937028 -0.050150 -3.030290 1.559733 22.753005 12.835177 -0.321959 -25.289994 -6.580678 0.674187 0.322392 10.276485 21.141508 17.759657 0.000000 0.000000 0.000000 -8.515070 1.318454 -30.641311 7.916788 -0.830718 0.802571 -4.041344 -13.873772 22.141055 0.000000 0.000000 0.000000 3.747284 -3.175161 34.109649 -4.691655 1.649937 -18.354049 -3.317754 6.585974 27.412431 18.080021 -7.015774 -27.764929 0.000000 0.000000 0.000000 5.186252 -23.603133 7.681761 -21.158189 -46.191018 1.560388 45.142871 -35.443706 -13.437513 0.000000 0.000000 0.000000 7.068766 8.164084 4.214615 34.259964 58.642212 12.058864 -43.179636 45.054897 -13.096540 0.000000 0.000000 0.000000 
-0.014902 0.937100 -0.050735 -3.090080 1.744953 22.775837 12.840918 -0.337099 -25.211997 -6.363395 0.641723 0.007523 10.171079 21.011850 17.802042 0.000000 0.000000 0.000000 -8.481154 1.310098 -30.663749 8.050311 -0.867147 1.365448 -3.847086 -13.381922 20.765320 0.000000 0.000000 0.000000 3.787237 -3.232348 34.328578 -4.770519 1.667405 -18.653071 -3.286894 6.479101 27.415856 18.407518 -7.178390 -27.867510 0.000000 0.000000 0.000000 5.050043 -23.843141 7.776189 -20.882226 -45.769134 1.434124 44.935570 -35.549572 -13.419442 0.000000 0.000000 0.000000 7.323091 8.029149 4.181378 34.056375 58.819643 11.987999 -42.135467 44.921673 -12.640295 0.000000 0.000000 0.000000 
-0.015313 0.937191 -0.051372 -3.116211 1.882835 22.947436 12.786506 -0.355941 -25.368257 -6.113579 0.610587 -0.168372 10.092223 20.920653 17.887507 0.000000 0.000000 0.000000 -8.455271 1.307128 -30.772205 8.151755 -0.893855 1.722106 -3.778664 -13.111271 19.611133 0.000000 0.000000 0.000000 3.826942 -3.273153 34.373871 -4.724391 1.652972 -18.711295 -3.371470 6.370974 27.340639 18.615192 -7.222983 -28.115947 0.000000 0.000000 0.000000 5.033581 -23.973476 7.825134 -20.842937 -45.002840 1.352141 44.974616 -36.109932 -13.683189 0.000000 0.000000 0.000000 7.814284 8.029415 4.241807 33.485317 58.993358 11.698793 -41.560370 44.696769 -12.329006 0.000000 0.000000 0.000000 
